<svg id="compass" xmlns="http://www.w3.org/2000/svg" width="49.922" height="49.922" viewBox="0 0 49.922 49.922">
  <path id="Tracé_37" data-name="Tracé 37" d="M217.36,217.36,208,208" transform="translate(-187.719 -187.719)" fill="none"/>
  <path id="Tracé_38" data-name="Tracé 38" d="M203.726,205.285a1.555,1.555,0,0,1-1.1-.457l-9.165-9.165a1.56,1.56,0,1,1,2.206-2.206l9.165,9.165a1.56,1.56,0,0,1-1.1,2.663Z" transform="translate(-174.182 -174.181)" fill="#f5e7c0"/>
  <path id="Tracé_39" data-name="Tracé 39" d="M129.56,152.961a1.56,1.56,0,0,1-1.449-2.14l6.24-15.6a1.56,1.56,0,0,1,.869-.869l15.6-6.24a1.56,1.56,0,0,1,2.028,2.028l-6.24,15.6a1.56,1.56,0,0,1-.869.869l-15.6,6.24a1.557,1.557,0,0,1-.579.112ZM137,137l-4.64,11.6,11.6-4.64,4.64-11.6Z" transform="translate(-115.519 -115.519)" fill="#f5e7c0"/>
  <path id="Tracé_40" data-name="Tracé 40" d="M24.961,49.922A24.961,24.961,0,0,1,7.311,7.311a24.961,24.961,0,0,1,35.3,35.3,24.8,24.8,0,0,1-17.65,7.311Zm0-46.8A21.841,21.841,0,1,0,46.8,24.961,21.866,21.866,0,0,0,24.961,3.12Z" fill="#f5e7c0"/>
</svg>
