<svg id="Groupe_15" data-name="Groupe 15" xmlns="http://www.w3.org/2000/svg" width="50" height="33.333" viewBox="0 0 50 33.333">
  <path id="Tracé_36" data-name="Tracé 36" d="M47.436,85.333H2.564A2.572,2.572,0,0,0,0,87.9V116.1a2.572,2.572,0,0,0,2.564,2.564H47.436A2.572,2.572,0,0,0,50,116.1V87.9A2.572,2.572,0,0,0,47.436,85.333Zm-.962,1.923-20,15a2.681,2.681,0,0,1-2.95,0l-20-15Zm-10.683,15.99,10.9,13.462c.011.013.024.024.036.036H3.276c.012-.013.025-.022.036-.036l10.9-13.462a.962.962,0,0,0-1.495-1.21L1.923,115.366V88.458l20.449,15.336a4.59,4.59,0,0,0,5.256,0L48.076,88.458v26.908l-10.791-13.33a.962.962,0,0,0-1.495,1.21Z" transform="translate(0 -85.333)" fill="#f5e7c0"/>
</svg>
