<svg id="Composant_11_1" data-name="Composant 11 – 1" xmlns="http://www.w3.org/2000/svg" width="268.229" height="52.451" viewBox="0 0 268.229 52.451">
  <path id="path15" d="M203.48,637.795a24.372,24.372,0,1,1-24.372,24.372h0A24.373,24.373,0,0,1,203.48,637.795Zm16.085,11.375H192.408a6.887,6.887,0,0,0-6.866,6.866v11.048a6.887,6.887,0,0,0,6.866,6.866h27.158V668h-25v-4.087h23.056v-5.24H194.567v-4.087h25Z" transform="translate(-179.108 -634.088)" fill="#b60ffc" fill-rule="evenodd"/>
  <path id="path13" d="M339.9,697.614a4.05,4.05,0,1,1-4.05,4.05v-.012a4.05,4.05,0,0,1,4.05-4.05Z" transform="translate(-281.942 -673.327)" fill="#f7e1b1" fill-rule="evenodd"/>
  <g id="LLUSION" transform="translate(67.229)" style="isolation: isolate">
    <text id="LLUSION-2" data-name="LLUSION" transform="translate(1 43)" fill="#f7e1b1" font-size="47" font-family="Aero" style="isolation: isolate"><tspan x="0" y="0">LLUSION</tspan></text>
  </g>
</svg>
