<svg xmlns="http://www.w3.org/2000/svg" width="339.339" height="65.675" viewBox="0 0 339.339 65.675">
  <g id="Groupe_13" data-name="Groupe 13" transform="translate(-176.576 -473.436)">
    <path id="path13" d="M340.917,543.338a5.07,5.07,0,1,1-5.07,5.07v-.015a5.07,5.07,0,0,1,5.07-5.07Z" transform="translate(-90.701 -39.799)" fill="#040506" stroke="#040506" stroke-miterlimit="22.926" stroke-width="0.307" fill-rule="evenodd"/>
    <g id="LLUSION" transform="translate(262.915 473.436)" style="isolation: isolate">
      <text id="LLUSION-2" data-name="LLUSION" transform="translate(2 54)" fill="#040506" font-size="59" font-family="Aero" style="isolation: isolate"><tspan x="0" y="0">LLUSION</tspan></text>
    </g>
    <path id="path15" d="M207.085,484.251a30.509,30.509,0,1,1-30.509,30.509h0A30.51,30.51,0,0,1,207.085,484.251Zm20.136,14.239h-34a8.621,8.621,0,0,0-8.595,8.595v13.83a8.621,8.621,0,0,0,8.595,8.595h34v-7.444H195.928v-5.117H224.79v-6.559H195.928v-5.117h31.294Z" transform="translate(0 -6.159)" fill="#dc091d" fill-rule="evenodd"/>
  </g>
</svg>
