<svg xmlns="http://www.w3.org/2000/svg" width="50" height="59.93" viewBox="0 0 50 59.93">
  <g id="user" transform="translate(0 0)">
    <path id="Tracé_34" data-name="Tracé 34" d="M101.546,28.652a14.138,14.138,0,0,0,10.263-4.2,13.773,13.773,0,0,0,4.252-10.129A13.774,13.774,0,0,0,111.808,4.2a14.646,14.646,0,0,0-20.524,0,13.772,13.772,0,0,0-4.252,10.129,13.773,13.773,0,0,0,4.252,10.129,14.142,14.142,0,0,0,10.262,4.2ZM93.781,6.661a11.081,11.081,0,0,1,15.53,0,10.29,10.29,0,0,1,3.218,7.664,10.29,10.29,0,0,1-3.218,7.665,11.08,11.08,0,0,1-15.53,0,10.288,10.288,0,0,1-3.218-7.665,10.289,10.289,0,0,1,3.218-7.664Zm0,0" transform="translate(-76.921)" fill="#f5e7c0"/>
    <path id="Tracé_35" data-name="Tracé 35" d="M49.879,264.322a35.132,35.132,0,0,0-.486-3.758,29.425,29.425,0,0,0-.931-3.779,18.6,18.6,0,0,0-1.566-3.524,13.3,13.3,0,0,0-2.36-3.053,10.417,10.417,0,0,0-3.39-2.114,11.8,11.8,0,0,0-4.328-.777,4.412,4.412,0,0,0-2.346.987c-.7.455-1.526.982-2.444,1.564a14.058,14.058,0,0,1-3.162,1.383,12.368,12.368,0,0,1-7.735,0,14.015,14.015,0,0,1-3.16-1.382c-.909-.577-1.732-1.1-2.446-1.565a4.407,4.407,0,0,0-2.345-.987,11.781,11.781,0,0,0-4.328.778,10.409,10.409,0,0,0-3.391,2.114A13.3,13.3,0,0,0,3.1,253.261a18.63,18.63,0,0,0-1.565,3.525,29.5,29.5,0,0,0-.931,3.778,34.892,34.892,0,0,0-.486,3.76c-.08,1.136-.12,2.318-.12,3.512a9.838,9.838,0,0,0,2.956,7.472,10.685,10.685,0,0,0,7.616,2.757H39.428a10.687,10.687,0,0,0,7.616-2.757A9.834,9.834,0,0,0,50,267.835c0-1.2-.041-2.381-.121-3.513Zm-5.256,8.46a7.2,7.2,0,0,1-5.195,1.8H10.572a7.2,7.2,0,0,1-5.195-1.8,6.423,6.423,0,0,1-1.865-4.947c0-1.115.037-2.215.111-3.271a31.472,31.472,0,0,1,.439-3.385,26.016,26.016,0,0,1,.819-3.331,15.167,15.167,0,0,1,1.274-2.866,9.857,9.857,0,0,1,1.734-2.256,6.911,6.911,0,0,1,2.256-1.392,8.135,8.135,0,0,1,2.766-.53c.123.065.342.189.7.418.722.467,1.554,1,2.474,1.583a17.465,17.465,0,0,0,3.969,1.76,15.9,15.9,0,0,0,9.9,0,17.485,17.485,0,0,0,3.972-1.762c.941-.6,1.75-1.115,2.472-1.582.355-.229.574-.354.7-.418a8.14,8.14,0,0,1,2.767.53,6.921,6.921,0,0,1,2.255,1.392,9.831,9.831,0,0,1,1.734,2.256,15.116,15.116,0,0,1,1.274,2.865,25.956,25.956,0,0,1,.819,3.331,31.735,31.735,0,0,1,.439,3.386h0c.075,1.052.112,2.152.112,3.27a6.422,6.422,0,0,1-1.866,4.947Zm0,0" transform="translate(0 -218.134)" fill="#f5e7c0"/>
  </g>
</svg>
